<?xml version="1.0" encoding="iso-8859-1"?>
<!-- Uploaded to: SVG Repo, www.svgrepo.com, Generator: SVG Repo Mixer Tools -->
<!DOCTYPE svg PUBLIC "-//W3C//DTD SVG 1.1//EN" "http://www.w3.org/Graphics/SVG/1.1/DTD/svg11.dtd">
<svg fill="#000000" height="800px" width="800px" version="1.1" id="Capa_1" xmlns="http://www.w3.org/2000/svg" xmlns:xlink="http://www.w3.org/1999/xlink" 
	 viewBox="0 0 354.43 354.43" xml:space="preserve">
<g>
	<path d="M352.214,48.676l-26.987-30.962c-2.099-2.408-5.312-3.522-8.46-2.929c-3.14,0.595-5.729,2.811-6.802,5.821L272.91,124.57
		c-11.234-19.063-30.04-31.592-51.312-31.592h-1.785c-4.446-12.976-16.757-22.333-31.221-22.333H95.26
		c-14.464,0-26.775,9.358-31.221,22.333h-1.785C27.927,92.978,0,125.589,0,165.674s27.927,72.695,62.254,72.695
		c15.688,0,30.662-6.807,42.165-19.167l1.569-1.682c6.511,13.286,20.173,22.458,35.939,22.458c15.767,0,29.429-9.173,35.94-22.461
		l1.477,1.587c0.026,0.029,0.054,0.059,0.08,0.088c11.505,12.366,26.482,19.176,42.175,19.176c3.817,0,7.549-0.425,11.178-1.197
		l-11.196,31.411c-3.888,10.909-14.867,17.783-26.324,16.643c2.785-3.847,4.57-8.354,5.158-13.199
		c0.599-4.935-2.917-9.419-7.851-10.018c-4.929-0.593-9.419,2.916-10.019,7.851c-0.334,2.754-1.721,5.214-3.904,6.925
		c-2.183,1.711-4.893,2.472-7.657,2.136l-11.07-1.342c-2.755-0.334-5.214-1.721-6.925-3.904c-1.711-2.184-2.47-4.903-2.136-7.657
		c0.599-4.935-2.917-9.419-7.851-10.018c-4.925-0.595-9.42,2.916-10.019,7.851c-0.562,4.632,0.039,9.139,1.559,13.24l-3.062-0.412
		c-2.365-0.321-4.761,0.316-6.659,1.763c-1.897,1.448-3.143,3.59-3.462,5.956c-1.603,11.903,1.526,23.719,8.811,33.269
		c7.283,9.55,17.851,15.692,29.754,17.295l30.48,4.104c3.679,0.496,7.338,0.737,10.966,0.737c34.877,0,66.551-22.332,77.759-56.202
		l74.844-226.183C354.974,54.397,354.305,51.074,352.214,48.676z M321.759,41.13l13.515,15.505l-8.223,24.849l-13.965-16.021
		L321.759,41.13z M192.677,207.011c-0.023-0.026-0.048-0.052-0.072-0.078l-33.571-36.085l-0.06-0.073
		c-4.01-4.818-9.901-7.711-16.166-7.937c-6.274-0.226-12.35,2.236-16.692,6.752l-0.929,0.965c-0.032,0.033-0.064,0.067-0.096,0.101
		l-33.834,36.268c-0.003,0.003-0.006,0.006-0.008,0.009c-8.062,8.665-18.358,13.436-28.995,13.436
		C37.853,220.369,18,195.833,18,165.674s19.853-54.696,44.254-54.696h159.345c24.402,0,44.255,24.537,44.255,54.696
		s-19.853,54.695-44.255,54.695C210.994,220.369,200.727,215.626,192.677,207.011z M95.26,88.644h93.333
		c4.101,0,7.82,1.657,10.531,4.333H84.729C87.44,90.302,91.159,88.644,95.26,88.644z M141.927,221.978
		c-11.302,0-20.637-8.568-21.86-19.549l18.139-19.444l0.881-0.916c1.095-1.139,2.391-1.269,3.073-1.243
		c0.678,0.024,1.966,0.247,2.976,1.46l0.22,0.264c0.106,0.128,0.216,0.253,0.33,0.375l18.106,19.462
		C162.587,213.389,153.243,221.978,141.927,221.978z M232.291,313.782l-8.609-19.097c0.404-0.302,0.803-0.612,1.197-0.928
		l18.413,12.327C239.9,309.03,236.212,311.61,232.291,313.782z M205.771,302.599c0.53-0.102,1.058-0.214,1.583-0.335l8.093,17.952
		c-3.986,0.905-8.087,1.424-12.255,1.544L205.771,302.599z M144.483,306.75c-2.479-3.251-4.156-6.94-4.967-10.828l48.118,6.479
		l-2.397,17.805l-22.911-3.085C155.188,316.161,148.852,312.477,144.483,306.75z M262.042,277.945
		c-1.713,5.176-4.049,9.999-6.885,14.421l-18.841-12.614c0.842-1.644,1.589-3.352,2.221-5.126l17.175-48.187
		c16.934-13.006,28.143-35.38,28.143-60.766c0-5.012-0.437-9.907-1.268-14.636l23.571-66.132l14.276,16.379
		c0.016,0.018,0.034,0.033,0.049,0.051L262.042,277.945z"/>
	<path d="M245.446,199.167c7.356-8.797,11.407-20.692,11.407-33.494s-4.051-24.697-11.407-33.494
		c-6.578-7.868-15.048-12.202-23.848-12.202H62.254c-8.8,0-17.269,4.333-23.846,12.201C31.052,140.976,27,152.871,27,165.674
		c0,12.801,4.051,24.696,11.407,33.494c6.578,7.868,15.047,12.202,23.847,12.202c8.229,0,15.977-3.654,22.396-10.557l33.918-36.357
		l1.058-1.101c5.826-6.057,13.985-9.531,22.384-9.531c9.124,0,17.747,3.983,23.656,10.928c0.086,0.101,0.175,0.201,0.266,0.298
		l33.263,35.753c6.432,6.912,14.179,10.565,22.404,10.565C230.397,211.369,238.866,207.036,245.446,199.167z M221.599,193.369
		c-3.914,0-7.178-2.625-9.227-4.827l-33.133-35.614c-6.117-7.127-14.049-12.259-22.827-14.95h65.187
		c3.375,0,6.94,2.041,10.039,5.748c4.653,5.565,7.216,13.36,7.216,21.948c0,8.588-2.563,16.382-7.216,21.947
		C228.538,191.327,224.973,193.369,221.599,193.369z M105.785,151.779c-0.193,0.199-0.383,0.4-0.437,0.459l-33.869,36.305
		c-2.048,2.202-5.311,4.826-9.226,4.826c-3.374,0-6.939-2.041-10.038-5.748C47.563,182.056,45,174.262,45,165.674
		c0-8.588,2.563-16.383,7.218-21.949c3.098-3.706,6.662-5.747,10.036-5.747h65.444c-7.932,2.431-15.226,6.849-21.046,12.899
		L105.785,151.779z"/>
</g>
</svg>