<svg width="420" height="267" viewBox="0 0 420 267" fill="none" xmlns="http://www.w3.org/2000/svg">
<g clip-path="url(#clip0_243_145)">
<g clip-path="url(#clip1_243_145)">
<g clip-path="url(#clip2_243_145)">
<path d="M260.739 38.2615H135.261V163.739H260.739V38.2615Z" fill="black"/>
<path opacity="0.5" d="M267 32H141.522V157.478H267V32Z" fill="black"/>
<g clip-path="url(#clip3_243_145)">
<g clip-path="url(#clip4_243_145)">
<path d="M234.079 136.076C229.694 133.446 224.808 130.439 215.288 130.439C205.767 130.439 200.881 133.446 196.497 136.076C192.363 138.582 188.855 140.712 181.464 140.712C173.948 140.712 170.44 138.582 166.431 136.076C162.047 133.446 157.161 130.439 147.641 130.439V137.58C155.157 137.58 158.665 139.709 162.673 142.215C167.058 144.846 171.943 147.852 181.464 147.852C190.86 147.852 195.87 144.846 200.255 142.215C204.389 139.709 207.897 137.58 215.288 137.58C222.679 137.58 226.312 139.709 230.32 142.215C234.705 144.846 239.591 147.852 249.111 147.852V140.712C241.72 140.586 238.087 138.457 234.079 136.076Z" fill="white"/>
<path d="M198.376 74.8184C201.132 74.8184 203.763 73.6909 205.767 71.8118C209.776 67.8031 209.776 61.1637 205.767 57.155C201.758 53.1463 195.119 53.1463 191.11 57.155C187.102 61.1637 187.102 67.8031 191.11 71.8118C192.989 73.6909 195.62 74.8184 198.376 74.8184ZM196.121 62.0406C196.747 61.4142 197.624 61.0384 198.501 61.0384C199.378 61.0384 200.13 61.4142 200.881 62.0406C202.134 63.2933 202.134 65.4229 200.881 66.6757C199.629 67.9284 197.499 67.9284 196.246 66.6757C194.743 65.4229 194.743 63.2933 196.121 62.0406Z" fill="white"/>
<path d="M194.117 115.657H179.46L183.218 110.145L177.33 99.9982C177.455 99.8729 177.581 99.7476 177.706 99.6223L189.482 87.8467C189.857 87.4709 190.233 86.9698 190.609 86.4688L195.871 93.484L209.65 84.8402L205.892 78.8271L197.624 83.9633L191.235 75.5701C190.734 74.6932 190.233 73.8162 189.482 73.1899C187.477 71.1855 184.972 70.1833 182.091 70.1833C179.335 70.1833 176.704 71.3108 174.699 73.1899L162.924 84.9655C160.92 86.9698 159.917 89.4753 159.917 92.3566C159.917 95.1125 161.045 97.7433 162.924 99.7476C164.928 101.752 167.559 102.754 170.315 102.754C170.44 102.754 170.566 102.754 170.566 102.754L174.699 109.895L170.691 115.782H146.889V122.923H194.117V115.657ZM168.06 94.7367C167.434 94.1104 167.058 93.2335 167.058 92.3566C167.058 91.4796 167.434 90.6027 168.06 89.9764L179.836 78.2008C180.462 77.5744 181.339 77.1986 182.216 77.1986C182.967 77.1986 183.719 77.4491 184.345 77.9502L185.348 79.3282C185.723 80.4557 185.473 81.8337 184.596 82.7106L172.82 94.4862C171.442 95.9895 169.313 95.9894 168.06 94.7367Z" fill="white"/>
</g>
</g>
</g>
</g>
<g clip-path="url(#clip5_243_145)">
<g clip-path="url(#clip6_243_145)">
<g clip-path="url(#clip7_243_145)">
<g clip-path="url(#clip8_243_145)">
<g clip-path="url(#clip9_243_145)">
<g clip-path="url(#clip10_243_145)">
<g clip-path="url(#clip11_243_145)">
<path d="M58.9337 223.209H51.7692V195.311H58.9737C63.019 195.311 66.1382 196.442 68.3316 198.705C70.525 200.963 71.6217 204.367 71.6217 208.92C71.6217 211.828 71.1361 214.352 70.1648 216.492C69.1882 218.632 67.7553 220.287 65.8661 221.456C63.9822 222.624 61.6714 223.209 58.9337 223.209ZM58.8136 199.314H56.9325V218.806H58.8136C60.2812 218.806 61.5033 218.528 62.48 217.973C63.4512 217.418 64.2277 216.679 64.8094 215.756C65.3911 214.827 65.8047 213.779 66.0502 212.61C66.2957 211.441 66.4184 210.251 66.4184 209.04C66.4184 207.359 66.1863 205.776 65.722 204.293C65.2524 202.814 64.4652 201.614 63.3605 200.69C62.2505 199.773 60.7349 199.314 58.8136 199.314ZM81.1877 223.209H76.0645V195.311H81.1877V223.209ZM95.7488 223.353H95.1164L84.0215 195.311H89.593L93.9957 207.599L95.5327 212.258L97.0697 207.599L101.312 195.311H106.804L95.7488 223.353ZM125.007 223.209H109.638V195.311H124.207V199.674H114.641V206.198H122.245V210.441H114.641V218.686H125.007V223.209ZM142.618 223.209H137.495V195.311H142.618V223.209ZM168.955 223.769H168.555L155.186 208.519L153.945 206.918L154.146 210.801V223.209H149.222V194.831H149.663L162.831 210.2L164.232 212.018L164.032 208.199V195.311H168.955V223.769ZM184.637 223.209H179.473V199.834H173.029V195.311H191.081V199.834H184.637V223.209ZM204.609 223.689C202.09 223.689 199.966 223.091 198.237 221.896C196.508 220.7 195.198 219.022 194.307 216.861C193.41 214.699 192.962 212.159 192.962 209.24C192.962 206.342 193.402 203.812 194.283 201.651C195.163 199.49 196.46 197.814 198.173 196.624C199.892 195.429 201.997 194.831 204.489 194.831C207.093 194.831 209.257 195.437 210.981 196.648C212.71 197.865 214.01 199.554 214.88 201.715C215.744 203.876 216.176 206.385 216.176 209.24C216.176 212.159 215.731 214.699 214.84 216.861C213.943 219.022 212.636 220.7 210.917 221.896C209.193 223.091 207.091 223.689 204.609 223.689ZM204.609 219.406C206.36 219.406 207.838 218.563 209.044 216.877C210.25 215.185 210.853 212.599 210.853 209.12C210.853 205.768 210.29 203.244 209.164 201.547C208.038 199.845 206.48 198.993 204.489 198.993C202.557 198.993 201.047 199.847 199.958 201.555C198.87 203.263 198.325 205.798 198.325 209.16C198.325 212.639 198.902 215.217 200.054 216.893C201.212 218.568 202.731 219.406 204.609 219.406ZM237.67 223.209H232.507V199.834H226.063V195.311H244.114V199.834H237.67V223.209ZM257.394 223.729C255.569 223.729 253.907 223.411 252.407 222.776C250.902 222.141 249.704 221.061 248.813 219.534C247.916 218.008 247.468 215.911 247.468 213.242V195.311H252.671V213.803C252.671 215.377 252.93 216.562 253.448 217.357C253.96 218.147 254.577 218.68 255.297 218.958C256.017 219.23 256.69 219.366 257.314 219.366C257.971 219.366 258.648 219.233 259.348 218.966C260.047 218.699 260.636 218.168 261.117 217.373C261.597 216.578 261.837 215.388 261.837 213.803V195.311H267.04V213.242C267.04 215.911 266.608 218.008 265.744 219.534C264.874 221.061 263.71 222.141 262.253 222.776C260.791 223.411 259.171 223.729 257.394 223.729ZM284.291 213.523L291.496 223.209H285.292L278.127 213.122V223.209H273.044V195.311H280.809C282.704 195.311 284.398 195.589 285.892 196.144C287.386 196.699 288.569 197.622 289.438 198.913C290.303 200.205 290.735 201.966 290.735 204.197C290.735 205.408 290.532 206.66 290.127 207.951C289.721 209.237 289.046 210.387 288.102 211.401C287.162 212.415 285.892 213.122 284.291 213.523ZM278.127 199.314V210.601H280.249C281.423 210.601 282.407 210.323 283.203 209.768C283.998 209.219 284.598 208.493 285.004 207.591C285.409 206.689 285.612 205.718 285.612 204.677C285.612 202.873 285.198 201.528 284.371 200.642C283.544 199.757 282.13 199.314 280.129 199.314H278.127ZM301.102 223.209H296.139V194.831H296.539L307.826 208.143L319.033 194.831H319.473V223.209H314.51V211.241L314.686 206.518L313.269 208.68L307.786 215.124L302.303 208.68L300.878 206.518L301.102 211.241V223.209ZM336.044 223.689C333.519 223.689 331.393 223.091 329.664 221.896C327.94 220.7 326.63 219.022 325.733 216.861C324.842 214.699 324.396 212.159 324.396 209.24C324.396 206.342 324.837 203.812 325.717 201.651C326.598 199.49 327.895 197.814 329.608 196.624C331.321 195.429 333.426 194.831 335.924 194.831C338.523 194.831 340.687 195.437 342.416 196.648C344.145 197.865 345.442 199.554 346.306 201.715C347.176 203.876 347.611 206.385 347.611 209.24C347.611 212.159 347.163 214.699 346.266 216.861C345.375 219.022 344.067 220.7 342.344 221.896C340.625 223.091 338.525 223.689 336.044 223.689ZM336.044 219.406C337.789 219.406 339.264 218.563 340.471 216.877C341.682 215.185 342.288 212.599 342.288 209.12C342.288 205.768 341.722 203.244 340.591 201.547C339.465 199.845 337.909 198.993 335.924 198.993C333.986 198.993 332.473 199.847 331.385 201.555C330.301 203.263 329.76 205.798 329.76 209.16C329.76 212.639 330.336 215.217 331.489 216.893C332.642 218.568 334.16 219.406 336.044 219.406ZM357.529 223.209H352.406V195.311H357.529V223.209ZM377.542 223.209H364.133V195.311H369.217V218.806H377.542V223.209Z" fill="black"/>
</g>
</g>
</g>
</g>
</g>
</g>
</g>
</g>
<defs>
<clipPath id="clip0_243_145">
<rect width="420" height="267" fill="white"/>
</clipPath>
<clipPath id="clip1_243_145">
<rect width="138" height="138" fill="white" transform="translate(129 32)"/>
</clipPath>
<clipPath id="clip2_243_145">
<rect width="138" height="138" fill="white" transform="translate(129 32)"/>
</clipPath>
<clipPath id="clip3_243_145">
<rect width="102.222" height="93.7037" fill="white" transform="translate(146.889 54.1484)"/>
</clipPath>
<clipPath id="clip4_243_145">
<rect width="102.222" height="93.7037" fill="white" transform="translate(146.889 54.1484)"/>
</clipPath>
<clipPath id="clip5_243_145">
<rect width="400" height="66.6" fill="white" transform="translate(-22 176)"/>
</clipPath>
<clipPath id="clip6_243_145">
<rect width="399.116" height="66.4795" fill="white" transform="translate(-21.5579 176.06)"/>
</clipPath>
<clipPath id="clip7_243_145">
<rect width="399.116" height="66.4795" fill="white" transform="translate(-21.5579 176.06)"/>
</clipPath>
<clipPath id="clip8_243_145">
<rect width="325.805" height="28.9382" fill="white" transform="translate(51.7533 194.831)"/>
</clipPath>
<clipPath id="clip9_243_145">
<rect width="325.805" height="28.9382" fill="white" transform="translate(51.7533 194.831)"/>
</clipPath>
<clipPath id="clip10_243_145">
<rect width="325.805" height="28.9382" fill="white" transform="translate(51.7533 194.831)"/>
</clipPath>
<clipPath id="clip11_243_145">
<rect width="325.805" height="28.9382" fill="white" transform="translate(51.7533 194.831)"/>
</clipPath>
</defs>
</svg>
